# xmcd CD database file
#
# Track frame offsets:
#	150
#	24204
#	46704
#	67752
#	91576
#	114121
#	138382
#	160443
#	184922
#	203948
#	227825
#	255905
#	274553
#	301244
#	326659
#
# Disc length: 4678 seconds
#
# Revision: 0
# Processed by: cddbd v1.5.2PL0 Copyright (c) Steve Scherf et al.
# Submitted via: CDex 1.70beta2
#
DISCID=b512440f
DTITLE=Morales de Salvador - Salsa Picante
DYEAR=1900
DGENRE=Salsa
TTITLE0=Mi amiga Chichi
TTITLE1=Tu a lo tuyo, yo a lo mio
TTITLE2=Coon la misma loca
TTITLE3=Sin etiqueta
TTITLE4=Me mantengo
TTITLE5=Palabras
TTITLE6=Un Loco con una Moto
TTITLE7=No me critiques
TTITLE8=Este ano
TTITLE9=Gozando en la Habana
TTITLE10=El melon
TTITLE11=No con cualquiera
TTITLE12=La Noche
TTITLE13=El Travesti
TTITLE14=Rolling stone
EXTD=
EXTT0=
EXTT1=
EXTT2=
EXTT3=
EXTT4=
EXTT5=
EXTT6=
EXTT7=
EXTT8=
EXTT9=
EXTT10=
EXTT11=
EXTT12=
EXTT13=
EXTT14=
PLAYORDER=
